# xmcd
#
# Track frame offsets:
#	150
#	12291
#	23911
#	38854
#	55135
#	69944
#	82795
#	95435
#	108464
#	121240
#	135110
#	148990
#	164897
#	178137
#	191304
#	205658
#	218424
#	231638
#	246977
#	262284
#	275328
#	289433
#	302120
#	316719
#	330923
#
# Disc length: 4566
#
# Revision: 1
# Processed by: cddbd v1.5.1PL0 Copyright (c) Steve Scherf et al.
# Submitted via: audiograbber 1.81.01
# Normalized: r0:DSETVAR1
#
DISCID=6a11d419
DTITLE=Various Artist - Chicago Urban Blues 1923-1945
DYEAR=2003
DGENRE=Blues
TTITLE0=Ida Cox - Chicago Bound Blues
TTITLE1=Hersal Thomas - Suitcase Blues
TTITLE2=Sippie Wallace - Bedroom Blues
TTITLE3=Bertha "Chippie" Hill and Richard M Jones Jazz Wizards - Sport Model Mama
TTITLE4=Meade Lux Lewis - Honky Tonk Train Blues
TTITLE5=Pine Top Smith - Pine Top Blues
TTITLE6=Tampa Red and His Hokum Jug Band - I Wonder Where My Easy Rider's Gone
TTITLE7=George Tom and Hannah May - Come On Mama
TTITLE8=Memphis Minnie - Squat It
TTITLE9=Bumble Bee Slim - Feather Bed Blues
TTITLE10=Big Bill Broonzy - Big Bill Blues
TTITLE11=Bob Robinson and His Bob Cats - Down In The Alley
TTITLE12=Lil Johnson - My Stove's In Good Condition
TTITLE13=Harlem Hamfats - We Gonna Pitch A Boogie Woogie
TTITLE14=Kokomo Arnold - Cold Winter Blues
TTITLE15=Jimmy Yancey /w. Faber Smith - East St. Louis Blues
TTITLE16=Washboard Sam and His Washboard Band - She Fooled Me
TTITLE17=Lil Green - Romance In The Dark
TTITLE18=Memphis Green - Beer Drinking Woman
TTITLE19=Big Maceo - Worried Life Blues
TTITLE20=Sonny Boy Williamson - Million Years Blues
TTITLE21=Tommy McClennan - Classy Mae Blues
TTITLE22=Jazz Gillum - Down South Blues
TTITLE23=Lonnie Johnson - Watch Shorty
TTITLE24=Roosevelt Sykes Trio - This Tavern Boogie
EXTD=Walle uppe dthis
EXTT0=
EXTT1=
EXTT2=
EXTT3=
EXTT4=
EXTT5=
EXTT6=
EXTT7=
EXTT8=
EXTT9=
EXTT10=
EXTT11=
EXTT12=
EXTT13=
EXTT14=
EXTT15=
EXTT16=
EXTT17=
EXTT18=
EXTT19=
EXTT20=
EXTT21=
EXTT22=
EXTT23=
EXTT24=
PLAYORDER=
